<svg xmlns="http://www.w3.org/2000/svg" width="1280" height="800" viewBox="0 0 1280 800">
  <defs>
    <linearGradient id="bg" x1="0" y1="0" x2="1" y2="1">
      <stop offset="0" stop-color="#0b2b4a"/>
      <stop offset="1" stop-color="#07101f"/>
    </linearGradient>
    <linearGradient id="line" x1="0" y1="0" x2="1" y2="0">
      <stop offset="0" stop-color="#4ca6ff"/>
      <stop offset="1" stop-color="#9b87ff"/>
    </linearGradient>
  </defs>
  <rect width="1280" height="800" fill="url(#bg)"/>
  <rect x="80" y="85" width="1120" height="630" rx="35" fill="#0b1729" stroke="#334155" stroke-width="3"/>
  <rect x="125" y="135" width="1030" height="70" rx="16" fill="#111f34"/>
  <circle cx="165" cy="170" r="12" fill="#7557ff"/>
  <rect x="200" y="154" width="250" height="30" rx="8" fill="#273550"/>
  <rect x="125" y="245" width="290" height="190" rx="18" fill="#111f34"/>
  <rect x="445" y="245" width="710" height="190" rx="18" fill="#111f34"/>
  <rect x="125" y="465" width="1030" height="195" rx="18" fill="#111f34"/>
  <path d="M500 385 C580 315 650 370 720 300 C790 230 880 320 1080 265" fill="none" stroke="url(#line)" stroke-width="18" stroke-linecap="round"/>
  <rect x="180" y="570" width="80" height="50" rx="8" fill="#4ca6ff" opacity=".55"/>
  <rect x="285" y="530" width="80" height="90" rx="8" fill="#4ca6ff" opacity=".68"/>
  <rect x="390" y="500" width="80" height="120" rx="8" fill="#4ca6ff" opacity=".82"/>
  <text x="155" y="315" fill="#f8fafc" font-family="Arial, sans-serif" font-size="54" font-weight="700">AÉROWORLD</text>
  <text x="155" y="375" fill="#a8b3c7" font-family="Arial, sans-serif" font-size="27">Cahier des charges • Portfolio data</text>
</svg>