<svg xmlns="http://www.w3.org/2000/svg" width="1280" height="900" viewBox="0 0 1280 900">
<defs><linearGradient id="bg" x1="0" y1="0" x2="1" y2="1"><stop offset="0" stop-color="#111f38"/><stop offset="1" stop-color="#07101f"/></linearGradient><linearGradient id="a" x1="0" y1="1" x2="1" y2="0"><stop offset="0" stop-color="#5d43df"/><stop offset="1" stop-color="#9b87ff"/></linearGradient></defs>
<rect width="1280" height="900" rx="36" fill="url(#bg)" stroke="#263653" stroke-width="3"/>
<rect x="62" y="52" width="1156" height="82" rx="18" fill="#0d182b"/>
<circle cx="103" cy="93" r="10" fill="#ff6577"/><circle cx="134" cy="93" r="10" fill="#ffd35a"/><circle cx="165" cy="93" r="10" fill="#45d483"/>
<text x="205" y="103" fill="#f8fafc" font-family="Arial" font-size="31" font-weight="700">Tableau de bord — Portfolio Data Analyst</text>
<rect x="62" y="166" width="350" height="170" rx="18" fill="#101e33"/><rect x="433" y="166" width="350" height="170" rx="18" fill="#101e33"/><rect x="804" y="166" width="414" height="170" rx="18" fill="#101e33"/>
<text x="92" y="212" fill="#a8b3c7" font-family="Arial" font-size="24">Projets</text><text x="92" y="279" fill="#fff" font-family="Arial" font-size="70" font-weight="700">4</text>
<text x="463" y="212" fill="#a8b3c7" font-family="Arial" font-size="24">Compétences clés</text><text x="463" y="279" fill="#fff" font-family="Arial" font-size="70" font-weight="700">6</text>
<text x="834" y="212" fill="#a8b3c7" font-family="Arial" font-size="24">Spécialité</text><text x="834" y="279" fill="#fff" font-family="Arial" font-size="70" font-weight="700">BI</text>
<rect x="62" y="365" width="742" height="380" rx="18" fill="#101e33"/><rect x="828" y="365" width="390" height="380" rx="18" fill="#101e33"/>
<path d="M120 650 C240 545 320 618 420 510 C520 402 640 520 746 420" fill="none" stroke="url(#a)" stroke-width="16" stroke-linecap="round"/>
<line x1="120" y1="450" x2="746" y2="450" stroke="#334155"/><line x1="120" y1="520" x2="746" y2="520" stroke="#334155"/><line x1="120" y1="590" x2="746" y2="590" stroke="#334155"/><line x1="120" y1="660" x2="746" y2="660" stroke="#334155"/>
<circle cx="1023" cy="555" r="105" fill="none" stroke="#1c2940" stroke-width="48"/><path d="M1023 450 A105 105 0 1 1 931 605" fill="none" stroke="#7557ff" stroke-width="48" stroke-linecap="round"/>
<text x="866" y="705" fill="#a8b3c7" font-family="Arial" font-size="23">Image temporaire</text>
<rect x="62" y="776" width="1156" height="72" rx="16" fill="#0d182b"/><text x="95" y="821" fill="#a08dff" font-family="Arial" font-size="25" font-weight="700">À remplacer si tu souhaites utiliser une vraie capture de tableau de bord</text>
</svg>
