<svg xmlns="http://www.w3.org/2000/svg" width="1280" height="800" viewBox="0 0 1280 800"><defs><linearGradient id="bg" x1="0" y1="0" x2="1" y2="1"><stop offset="0" stop-color="#0a2b49"/><stop offset="1" stop-color="#07101f"/></linearGradient></defs><rect width="1280" height="800" fill="url(#bg)"/><rect x="70" y="70" width="1140" height="660" rx="34" fill="#0b1729" stroke="#334155" stroke-width="3"/><rect x="110" y="110" width="1060" height="72" rx="16" fill="#111f34"/><circle cx="150" cy="146" r="11" fill="#4ca7ff"/><rect x="190" y="130" width="260" height="30" rx="8" fill="#273550"/><rect x="110" y="220" width="320" height="220" rx="18" fill="#111f34"/><rect x="460" y="220" width="710" height="220" rx="18" fill="#111f34"/><path d="M510 385 C620 290 710 390 805 300 C900 210 1010 335 1120 260" fill="none" stroke="#4ca7ff" stroke-width="18" stroke-linecap="round"/><rect x="110" y="475" width="1060" height="210" rx="18" fill="#111f34"/><text x="150" y="315" fill="#f8fafc" font-family="Arial" font-size="54" font-weight="700">AÉROWORLD</text><text x="150" y="370" fill="#a8b3c7" font-family="Arial" font-size="25">Capture du Gantt, du cahier des charges ou du portfolio</text><text x="520" y="565" fill="#4ca7ff" font-family="Arial" font-size="34" font-weight="700">IMAGE TEMPORAIRE</text><text x="520" y="615" fill="#a8b3c7" font-family="Arial" font-size="24">Remplace ce fichier par ta capture finale</text></svg>